<svg width="165" height="50" viewBox="0 0 165 50" fill="none" xmlns="http://www.w3.org/2000/svg">
<rect y="0.156708" width="165" height="49.1349" rx="5" fill="#D64374"/>
<path d="M48.1016 27.2683C48.1016 26.7683 47.9245 26.3829 47.5703 26.1121C47.2214 25.8412 46.5885 25.5678 45.6719 25.2917C44.7552 25.0157 44.026 24.7084 43.4844 24.3699C42.4479 23.7188 41.9297 22.8699 41.9297 21.823C41.9297 20.9063 42.3021 20.1511 43.0469 19.5574C43.7969 18.9636 44.7682 18.6667 45.9609 18.6667C46.7526 18.6667 47.4583 18.8126 48.0781 19.1042C48.6979 19.3959 49.1849 19.8126 49.5391 20.3542C49.8932 20.8907 50.0703 21.4871 50.0703 22.1433H48.1016C48.1016 21.5496 47.9141 21.086 47.5391 20.7527C47.1693 20.4141 46.638 20.2449 45.9453 20.2449C45.2995 20.2449 44.7969 20.3829 44.4375 20.6589C44.0833 20.935 43.9062 21.3204 43.9062 21.8152C43.9062 22.2319 44.099 22.5808 44.4844 22.8621C44.8698 23.1381 45.5052 23.4089 46.3906 23.6746C47.276 23.935 47.987 24.2345 48.5234 24.573C49.0599 24.9063 49.4531 25.2917 49.7031 25.7292C49.9531 26.1615 50.0781 26.6694 50.0781 27.2527C50.0781 28.2006 49.7135 28.9558 48.9844 29.5183C48.2604 30.0756 47.276 30.3542 46.0312 30.3542C45.2083 30.3542 44.4505 30.2032 43.7578 29.9011C43.0703 29.5938 42.5339 29.172 42.1484 28.6355C41.7682 28.099 41.5781 27.474 41.5781 26.7605H43.5547C43.5547 27.4063 43.7682 27.9063 44.1953 28.2605C44.6224 28.6147 45.2344 28.7917 46.0312 28.7917C46.7188 28.7917 47.2344 28.6537 47.5781 28.3777C47.9271 28.0964 48.1016 27.7266 48.1016 27.2683ZM55.3516 30.3542C54.1484 30.3542 53.1719 29.9766 52.4219 29.2214C51.6771 28.461 51.3047 27.4506 51.3047 26.1902V25.9558C51.3047 25.1121 51.4661 24.3595 51.7891 23.698C52.1172 23.0313 52.5755 22.5131 53.1641 22.1433C53.7526 21.7735 54.4089 21.5886 55.1328 21.5886C56.2839 21.5886 57.1719 21.9558 57.7969 22.6902C58.4271 23.4246 58.7422 24.4636 58.7422 25.8074V26.573H53.2188C53.276 27.2709 53.5078 27.823 53.9141 28.2292C54.3255 28.6355 54.8411 28.8386 55.4609 28.8386C56.3307 28.8386 57.0391 28.4871 57.5859 27.7839L58.6094 28.7605C58.2708 29.2657 57.8177 29.6589 57.25 29.9402C56.6875 30.2162 56.0547 30.3542 55.3516 30.3542ZM55.125 23.1121C54.6042 23.1121 54.1823 23.2944 53.8594 23.6589C53.5417 24.0235 53.3385 24.5313 53.25 25.1824H56.8672V25.0417C56.8255 24.4063 56.6562 23.9272 56.3594 23.6042C56.0625 23.2761 55.651 23.1121 55.125 23.1121ZM63.9453 30.3542C62.7422 30.3542 61.7656 29.9766 61.0156 29.2214C60.2708 28.461 59.8984 27.4506 59.8984 26.1902V25.9558C59.8984 25.1121 60.0599 24.3595 60.3828 23.698C60.7109 23.0313 61.1693 22.5131 61.7578 22.1433C62.3464 21.7735 63.0026 21.5886 63.7266 21.5886C64.8776 21.5886 65.7656 21.9558 66.3906 22.6902C67.0208 23.4246 67.3359 24.4636 67.3359 25.8074V26.573H61.8125C61.8698 27.2709 62.1016 27.823 62.5078 28.2292C62.9193 28.6355 63.4349 28.8386 64.0547 28.8386C64.9245 28.8386 65.6328 28.4871 66.1797 27.7839L67.2031 28.7605C66.8646 29.2657 66.4115 29.6589 65.8438 29.9402C65.2812 30.2162 64.6484 30.3542 63.9453 30.3542ZM63.7188 23.1121C63.1979 23.1121 62.776 23.2944 62.4531 23.6589C62.1354 24.0235 61.9323 24.5313 61.8438 25.1824H65.4609V25.0417C65.4193 24.4063 65.25 23.9272 64.9531 23.6042C64.6562 23.2761 64.2448 23.1121 63.7188 23.1121ZM72.9844 30.198V18.823H76.3438C77.349 18.823 78.2396 19.047 79.0156 19.4949C79.7969 19.9428 80.401 20.5782 80.8281 21.4011C81.2552 22.224 81.4688 23.1667 81.4688 24.2292V24.7996C81.4688 25.8777 81.2526 26.8256 80.8203 27.6433C80.3932 28.461 79.7812 29.0912 78.9844 29.5339C78.1927 29.9766 77.2839 30.198 76.2578 30.198H72.9844ZM74.9609 20.4167V28.6199H76.25C77.2865 28.6199 78.0807 28.297 78.6328 27.6511C79.1901 27.0001 79.474 26.0678 79.4844 24.8542V24.2214C79.4844 22.9871 79.2161 22.0444 78.6797 21.3933C78.1432 20.7423 77.3646 20.4167 76.3438 20.4167H74.9609ZM86.9766 30.3542C85.7734 30.3542 84.7969 29.9766 84.0469 29.2214C83.3021 28.461 82.9297 27.4506 82.9297 26.1902V25.9558C82.9297 25.1121 83.0911 24.3595 83.4141 23.698C83.7422 23.0313 84.2005 22.5131 84.7891 22.1433C85.3776 21.7735 86.0339 21.5886 86.7578 21.5886C87.9089 21.5886 88.7969 21.9558 89.4219 22.6902C90.0521 23.4246 90.3672 24.4636 90.3672 25.8074V26.573H84.8438C84.901 27.2709 85.1328 27.823 85.5391 28.2292C85.9505 28.6355 86.4661 28.8386 87.0859 28.8386C87.9557 28.8386 88.6641 28.4871 89.2109 27.7839L90.2344 28.7605C89.8958 29.2657 89.4427 29.6589 88.875 29.9402C88.3125 30.2162 87.6797 30.3542 86.9766 30.3542ZM86.75 23.1121C86.2292 23.1121 85.8073 23.2944 85.4844 23.6589C85.1667 24.0235 84.9635 24.5313 84.875 25.1824H88.4922V25.0417C88.4505 24.4063 88.2812 23.9272 87.9844 23.6042C87.6875 23.2761 87.276 23.1121 86.75 23.1121ZM94.2266 19.6902V21.7449H95.7188V23.1511H94.2266V27.8699C94.2266 28.1928 94.2891 28.4272 94.4141 28.573C94.5443 28.7136 94.7734 28.7839 95.1016 28.7839C95.3203 28.7839 95.5417 28.7579 95.7656 28.7058V30.1746C95.3333 30.2944 94.9167 30.3542 94.5156 30.3542C93.0573 30.3542 92.3281 29.5496 92.3281 27.9402V23.1511H90.9375V21.7449H92.3281V19.6902H94.2266ZM102.227 30.198C102.143 30.0365 102.07 29.7735 102.008 29.4089C101.404 30.0391 100.664 30.3542 99.7891 30.3542C98.9401 30.3542 98.2474 30.1121 97.7109 29.6277C97.1745 29.1433 96.9062 28.5444 96.9062 27.8308C96.9062 26.9298 97.2396 26.2397 97.9062 25.7605C98.5781 25.2761 99.5365 25.0339 100.781 25.0339H101.945V24.4792C101.945 24.0417 101.823 23.6928 101.578 23.4324C101.333 23.1667 100.961 23.0339 100.461 23.0339C100.029 23.0339 99.6745 23.1433 99.3984 23.3621C99.1224 23.5756 98.9844 23.849 98.9844 24.1824H97.0859C97.0859 23.7188 97.2396 23.2865 97.5469 22.8855C97.8542 22.4792 98.2708 22.1615 98.7969 21.9324C99.3281 21.7032 99.9193 21.5886 100.57 21.5886C101.56 21.5886 102.349 21.8386 102.938 22.3386C103.526 22.8334 103.828 23.5313 103.844 24.4324V28.2449C103.844 29.0053 103.951 29.6121 104.164 30.0652V30.198H102.227ZM100.141 28.8308C100.516 28.8308 100.867 28.7397 101.195 28.5574C101.529 28.3751 101.779 28.1303 101.945 27.823V26.2292H100.922C100.219 26.2292 99.6901 26.3516 99.3359 26.5964C98.9818 26.8412 98.8047 27.1876 98.8047 27.6355C98.8047 28.0001 98.9245 28.2917 99.1641 28.5105C99.4089 28.724 99.7344 28.8308 100.141 28.8308ZM107.852 30.198H105.953V21.7449H107.852V30.198ZM105.836 19.5496C105.836 19.2579 105.927 19.0157 106.109 18.823C106.297 18.6303 106.562 18.5339 106.906 18.5339C107.25 18.5339 107.516 18.6303 107.703 18.823C107.891 19.0157 107.984 19.2579 107.984 19.5496C107.984 19.836 107.891 20.0756 107.703 20.2683C107.516 20.4558 107.25 20.5496 106.906 20.5496C106.562 20.5496 106.297 20.4558 106.109 20.2683C105.927 20.0756 105.836 19.836 105.836 19.5496ZM111.945 30.198H110.047V18.198H111.945V30.198ZM118.758 27.9011C118.758 27.5626 118.617 27.3048 118.336 27.1277C118.06 26.9506 117.599 26.7944 116.953 26.6589C116.307 26.5235 115.768 26.3516 115.336 26.1433C114.388 25.685 113.914 25.0209 113.914 24.1511C113.914 23.422 114.221 22.8126 114.836 22.323C115.451 21.8334 116.232 21.5886 117.18 21.5886C118.19 21.5886 119.005 21.8386 119.625 22.3386C120.25 22.8386 120.562 23.4871 120.562 24.2839H118.664C118.664 23.9194 118.529 23.6173 118.258 23.3777C117.987 23.1329 117.628 23.0105 117.18 23.0105C116.763 23.0105 116.422 23.1069 116.156 23.2996C115.896 23.4923 115.766 23.7501 115.766 24.073C115.766 24.3647 115.888 24.5912 116.133 24.7527C116.378 24.9141 116.872 25.0782 117.617 25.2449C118.362 25.4063 118.945 25.6016 119.367 25.8308C119.794 26.0548 120.109 26.3256 120.312 26.6433C120.521 26.961 120.625 27.3464 120.625 27.7996C120.625 28.56 120.31 29.1772 119.68 29.6511C119.049 30.1199 118.224 30.3542 117.203 30.3542C116.51 30.3542 115.893 30.2292 115.352 29.9792C114.81 29.7292 114.388 29.3855 114.086 28.948C113.784 28.5105 113.633 28.0391 113.633 27.5339H115.477C115.503 27.9819 115.672 28.3282 115.984 28.573C116.297 28.8126 116.711 28.9324 117.227 28.9324C117.727 28.9324 118.107 28.8386 118.367 28.6511C118.628 28.4584 118.758 28.2084 118.758 27.9011Z" fill="#FAFAFA"/>
</svg>
